<?xml version="1.0" encoding="UTF-8"?>
<!DOCTYPE svg PUBLIC "-//W3C//DTD SVG 1.1//EN" "http://www.w3.org/Graphics/SVG/1.1/DTD/svg11.dtd">
<svg xmlns="http://www.w3.org/2000/svg" version="1.1" width="75px" height="50px" style="shape-rendering:geometricPrecision; text-rendering:geometricPrecision; image-rendering:optimizeQuality; fill-rule:evenodd; clip-rule:evenodd" xmlns:xlink="http://www.w3.org/1999/xlink">
<g><path style="opacity:1" fill="#fefffe" d="M 23.5,0.5 C 25.337,0.639452 25.6704,1.30612 24.5,2.5C 23.7025,2.04311 23.3691,1.37644 23.5,0.5 Z"/></g>
<g><path style="opacity:1" fill="#fefffe" d="M 48.5,0.5 C 50.337,0.639452 50.6704,1.30612 49.5,2.5C 48.7025,2.04311 48.3691,1.37644 48.5,0.5 Z"/></g>
<g><path style="opacity:1" fill="#fefffe" d="M 13.5,1.5 C 16.0009,1.51092 16.1676,2.17759 14,3.5C 13.5357,2.90558 13.369,2.23891 13.5,1.5 Z"/></g>
<g><path style="opacity:1" fill="#fefffe" d="M 58.5,1.5 C 61.0009,1.51092 61.1676,2.17759 59,3.5C 58.5357,2.90558 58.369,2.23891 58.5,1.5 Z"/></g>
<g><path style="opacity:1" fill="#fefffe" d="M 32.5,2.5 C 33.7733,3.07683 33.7733,3.7435 32.5,4.5C 31.537,4.03017 31.537,3.3635 32.5,2.5 Z"/></g>
<g><path style="opacity:1" fill="#fefffe" d="M 38.5,3.5 C 39.8488,2.2035 41.1821,2.37017 42.5,4C 41.0715,4.57906 39.7382,4.41239 38.5,3.5 Z"/></g>
<g><path style="opacity:1" fill="#fefffe" d="M 12.5,4.5 C 13.525,4.89657 13.6917,5.56323 13,6.5C 12.5357,5.90558 12.369,5.23891 12.5,4.5 Z"/></g>
<g><path style="opacity:1" fill="#fefffe" d="M 15.5,5.5 C 17.9076,6.31476 18.7409,7.98143 18,10.5C 17.2232,8.29852 16.0565,8.29852 14.5,10.5C 15.4402,13.0523 14.4402,13.8856 11.5,13C 11.1667,12.6667 10.8333,12.3333 10.5,12C 12.7835,10.3468 14.4502,8.18012 15.5,5.5 Z"/></g>
<g><path style="opacity:1" fill="#fefffe" d="M 28.5,6.5 C 27.8333,5.16667 27.8333,5.16667 28.5,6.5 Z"/></g>
<g><path style="opacity:1" fill="#fefffe" d="M 42.5,5.5 C 43.8333,6.16667 43.8333,6.16667 42.5,5.5 Z"/></g>
<g><path style="opacity:1" fill="#fefffe" d="M 56.5,5.5 C 59.4734,5.96513 60.6401,7.6318 60,10.5C 57.8415,9.51103 56.6748,7.84436 56.5,5.5 Z"/></g>
<g><path style="opacity:1" fill="#fefffe" d="M 10.5,6.5 C 11.2891,6.78281 11.9558,7.28281 12.5,8C 11.184,8.52811 10.5173,8.02811 10.5,6.5 Z"/></g>
<g><path style="opacity:1" fill="#fefffe" d="M 28.5,6.5 C 29.8333,7.16667 29.8333,7.16667 28.5,6.5 Z"/></g>
<g><path style="opacity:1" fill="#fefffe" d="M 42.5,6.5 C 42.5,6.83333 42.5,7.16667 42.5,7.5C 41.8299,7.01865 41.8299,6.68532 42.5,6.5 Z"/></g>
<g><path style="opacity:1" fill="#fefffe" d="M 45.5,7.5 C 44.8333,6.16667 44.8333,6.16667 45.5,7.5 Z"/></g>
<g><path style="opacity:1" fill="#fefffe" d="M 62.5,6.5 C 63.7733,7.07683 63.7733,7.7435 62.5,8.5C 61.537,8.03017 61.537,7.3635 62.5,6.5 Z"/></g>
<g><path style="opacity:1" fill="#fefffe" d="M 25.5,8.5 C 25.8966,7.47498 26.5632,7.30831 27.5,8C 26.9056,8.46434 26.2389,8.63101 25.5,8.5 Z"/></g>
<g><path style="opacity:1" fill="#fefffe" d="M 35.5,7.5 C 41.609,10.7244 47.609,14.2244 53.5,18C 54.731,19.1827 54.731,20.3493 53.5,21.5C 48.3972,16.7748 42.7305,12.7748 36.5,9.5C 31.9998,12.5845 27.3331,15.4179 22.5,18C 21.2986,18.9025 20.4652,20.0692 20,21.5C 18.3831,20.4642 18.2164,19.2975 19.5,18C 25.4121,15.222 30.7454,11.722 35.5,7.5 Z"/></g>
<g><path style="opacity:1" fill="#fefffe" d="M 42.5,7.5 C 43.8333,8.16667 43.8333,8.16667 42.5,7.5 Z"/></g>
<g><path style="opacity:1" fill="#fefffe" d="M 45.5,7.5 C 46.791,7.26269 47.791,7.59603 48.5,8.5C 47.209,8.73731 46.209,8.40397 45.5,7.5 Z"/></g>
<g><path style="opacity:1" fill="#fefffe" d="M 51.5,7.5 C 52.7733,8.07683 52.7733,8.7435 51.5,9.5C 50.537,9.03017 50.537,8.3635 51.5,7.5 Z"/></g>
<g><path style="opacity:1" fill="#fefffe" d="M 25.5,8.5 C 24.8333,9.16667 24.8333,9.16667 25.5,8.5 Z"/></g>
<g><path style="opacity:1" fill="#fefffe" d="M 48.5,8.5 C 49.8333,9.16667 49.8333,9.16667 48.5,8.5 Z"/></g>
<g><path style="opacity:1" fill="#fefffe" d="M 55.5,9.5 C 54.7611,9.63101 54.0944,9.46434 53.5,9C 54.4368,8.30831 55.1034,8.47498 55.5,9.5 Z"/></g>
<g><path style="opacity:1" fill="#fefffe" d="M 55.5,9.5 C 56.8333,10.1667 56.8333,10.1667 55.5,9.5 Z"/></g>
<g><path style="opacity:1" fill="#fefffe" d="M 20.5,10.5 C 23.7973,10.3287 24.1306,10.9954 21.5,12.5C 20.7025,12.0431 20.3691,11.3764 20.5,10.5 Z"/></g>
<g><path style="opacity:1" fill="#fefffe" d="M 50.5,11.5 C 51.3864,10.2241 52.3864,10.2241 53.5,11.5C 52.5754,12.5624 51.5754,12.5624 50.5,11.5 Z"/></g>
<g><path style="opacity:1" fill="#fefffe" d="M 8.5,11.5 C 9.57346,12.2506 9.74012,13.2506 9,14.5C 8.51722,13.552 8.35055,12.552 8.5,11.5 Z"/></g>
<g><path style="opacity:1" fill="#fefffe" d="M 16.5,12.5 C 16.8966,11.475 17.5632,11.3083 18.5,12C 17.9056,12.4643 17.2389,12.631 16.5,12.5 Z"/></g>
<g><path style="opacity:1" fill="#fefffe" d="M 55.5,11.5 C 56.8333,12.1667 56.8333,12.1667 55.5,11.5 Z"/></g>
<g><path style="opacity:1" fill="#fefffe" d="M 60.5,20.5 C 61.9844,17.7655 60.9844,16.2655 57.5,16C 61.2132,15.7699 61.8799,14.6032 59.5,12.5C 60.8333,11.1667 62.1667,11.1667 63.5,12.5C 62.2103,15.6523 62.2103,18.8189 63.5,22C 63.0414,24.3546 62.2081,26.5212 61,28.5C 61.6119,25.8064 61.4452,23.1397 60.5,20.5 Z"/></g>
<g><path style="opacity:1" fill="#fefffe" d="M 11.5,14.5 C 13.7425,15.505 14.0759,17.005 12.5,19C 12.7591,20.2613 13.4258,21.2613 14.5,22C 13.572,22.3879 12.9054,23.0546 12.5,24C 13.3295,25.4651 13.4962,26.9651 13,28.5C 12.1931,26.4226 11.0264,24.5893 9.5,23C 9.0574,21.4815 9.72407,20.3148 11.5,19.5C 10.4647,17.8716 10.4647,16.205 11.5,14.5 Z"/></g>
<g><path style="opacity:1" fill="#fefffe" d="M 14.5,16.5 C 14.8966,15.475 15.5632,15.3083 16.5,16C 15.9056,16.4643 15.2389,16.631 14.5,16.5 Z"/></g>
<g><path style="opacity:1" fill="#fefffe" d="M 7.5,17.5 C 8.28913,17.7828 8.9558,18.2828 9.5,19C 8.18398,19.5281 7.51731,19.0281 7.5,17.5 Z"/></g>
<g><path style="opacity:1" fill="#fefffe" d="M 66.5,21.5 C 65.8333,21.5 65.5,21.8333 65.5,22.5C 64.2121,20.9652 64.2121,19.2985 65.5,17.5C 65.7876,18.8605 66.121,20.1938 66.5,21.5 Z"/></g>
<g><path style="opacity:1" fill="#fefffe" d="M 0.5,18.5 C 2.12377,18.3601 3.29044,19.0267 4,20.5C 4.30762,19.6919 4.80762,19.0253 5.5,18.5C 6.58957,19.3914 6.58957,20.3914 5.5,21.5C 6.37598,22.2508 7.37598,22.7508 8.5,23C 6.71739,24.0665 6.21739,25.5665 7,27.5C 7.89277,26.2888 8.7261,26.2888 9.5,27.5C 9.0688,28.2935 8.73546,29.1268 8.5,30C 9.50377,31.7983 10.0038,33.6316 10,35.5C 7.96687,31.9664 5.13354,29.2997 1.5,27.5C 5.36421,26.05 5.36421,24.55 1.5,23C 1.95735,22.586 2.29069,22.086 2.5,21.5C 1.38809,20.7348 0.721419,19.7348 0.5,18.5 Z"/></g>
<g><path style="opacity:1" fill="#fefffe" d="M 15.5,18.5 C 16.525,18.8966 16.6917,19.5632 16,20.5C 15.5357,19.9056 15.369,19.2389 15.5,18.5 Z"/></g>
<g><path style="opacity:1" fill="#fefffe" d="M 57.5,18.5 C 58.525,18.8966 58.6917,19.5632 58,20.5C 57.5357,19.9056 57.369,19.2389 57.5,18.5 Z"/></g>
<g><path style="opacity:1" fill="#fefffe" d="M 65.5,22.5 C 66.1667,22.5 66.5,22.1667 66.5,21.5C 67.1174,21.6107 67.6174,21.944 68,22.5C 67.7374,21.0494 67.9041,19.7161 68.5,18.5C 69.1924,19.0253 69.6924,19.6919 70,20.5C 70.8261,18.5946 71.9928,18.2612 73.5,19.5C 71.6652,20.4277 71.3318,21.5944 72.5,23C 68.6358,24.55 68.6358,26.05 72.5,27.5C 68.8665,29.2997 66.0331,31.9664 64,35.5C 63.9962,33.6316 64.4962,31.7983 65.5,30C 65.2645,29.1268 64.9312,28.2935 64.5,27.5C 65.2739,26.2888 66.1072,26.2888 67,27.5C 67.6128,25.5048 67.1128,23.8381 65.5,22.5 Z"/></g>
<g><path style="opacity:1" fill="#fefffe" d="M 60.5,20.5 C 59.8333,19.1667 59.8333,19.1667 60.5,20.5 Z"/></g>
<g><path style="opacity:1" fill="#fefffe" d="M 41.5,22.5 C 44.1667,22.5 46.8333,22.5 49.5,22.5C 50.2071,25.7861 50.5405,29.1194 50.5,32.5C 48.4727,32.6621 46.4727,32.4955 44.5,32C 46.1341,31.5065 47.8008,31.3398 49.5,31.5C 48.9084,28.8728 48.5751,26.2062 48.5,23.5C 46.4086,23.3184 44.4086,23.6518 42.5,24.5C 41.7025,24.0431 41.3691,23.3764 41.5,22.5 Z"/></g>
<g><path style="opacity:1" fill="#fefffe" d="M 40.5,26.5 C 41.1312,28.4478 42.1312,30.2811 43.5,32C 42.552,32.4828 41.552,32.6495 40.5,32.5C 40.5,30.5 40.5,28.5 40.5,26.5 Z"/></g>
<g><path style="opacity:1" fill="#fefffe" d="M 53.5,26.5 C 54.3019,27.9516 54.8019,29.6183 55,31.5C 55.4994,36.8229 55.666,42.1563 55.5,47.5C 48.1591,47.6663 40.8258,47.4997 33.5,47C 32.7117,43.9243 32.2117,40.7577 32,37.5C 28.889,35.728 27.0556,36.5613 26.5,40C 27.2156,42.7923 27.5489,45.6257 27.5,48.5C 24.5448,47.8413 21.5448,47.5079 18.5,47.5C 18.1744,43.1161 18.5078,38.7828 19.5,34.5C 20.4909,38.4454 20.8242,42.4454 20.5,46.5C 22.1667,46.5 23.8333,46.5 25.5,46.5C 25.5,42.8333 25.5,39.1667 25.5,35.5C 28.5,35.5 31.5,35.5 34.5,35.5C 34.5,39.1667 34.5,42.8333 34.5,46.5C 41.1667,46.5 47.8333,46.5 54.5,46.5C 54.3877,39.8198 54.0543,33.1531 53.5,26.5 Z"/></g>
<g><path style="opacity:1" fill="#fefffe" d="M 14.5,27.5 C 15.5735,28.2506 15.7401,29.2506 15,30.5C 14.5172,29.552 14.3505,28.552 14.5,27.5 Z"/></g>
<g><path style="opacity:1" fill="#fefffe" d="M 58.5,27.5 C 59.5735,28.2506 59.7401,29.2506 59,30.5C 58.5172,29.552 58.3505,28.552 58.5,27.5 Z"/></g>
<g><path style="opacity:1" fill="#fefffe" d="M 15.5,38.5 C 14.0783,38.2914 12.745,37.7914 11.5,37C 12.448,36.5172 13.448,36.3505 14.5,36.5C 14.2148,34.712 14.5481,33.0453 15.5,31.5C 16.5063,31.9377 16.5063,32.6043 15.5,33.5C 16.1667,34.1667 16.8333,34.8333 17.5,35.5C 16.8075,36.5178 16.1408,37.5178 15.5,38.5 Z"/></g>
<g><path style="opacity:1" fill="#fefffe" d="M 58.5,34.5 C 57.913,33.2334 57.913,32.2334 58.5,31.5C 59.7759,32.6136 59.7759,33.6136 58.5,34.5 Z"/></g>
<g><path style="opacity:1" fill="#fefffe" d="M 69.5,31.5 C 70.8333,32.1667 70.8333,32.1667 69.5,31.5 Z"/></g>
<g><path style="opacity:1" fill="#fefffe" d="M 4.5,33.5 C 3.83333,32.1667 3.83333,32.1667 4.5,33.5 Z"/></g>
<g><path style="opacity:1" fill="#fefffe" d="M 11.5,33.5 C 12.0768,32.2267 12.7435,32.2267 13.5,33.5C 13.0302,34.463 12.3635,34.463 11.5,33.5 Z"/></g>
<g><path style="opacity:1" fill="#fefffe" d="M 60.5,32.5 C 62.337,32.6395 62.6704,33.3061 61.5,34.5C 60.7025,34.0431 60.3691,33.3764 60.5,32.5 Z"/></g>
<g><path style="opacity:1" fill="#fefffe" d="M 4.5,33.5 C 5.83333,33.5 6.5,34.1667 6.5,35.5C 5.5,35.1667 4.83333,34.5 4.5,33.5 Z"/></g>
<g><path style="opacity:1" fill="#fefffe" d="M 67.5,35.5 C 67.5173,33.9719 68.184,33.4719 69.5,34C 68.9558,34.7172 68.2891,35.2172 67.5,35.5 Z"/></g>
<g><path style="opacity:1" fill="#fefffe" d="M 58.5,34.5 C 59.5893,36.1171 61.256,36.9504 63.5,37C 61.7971,37.7453 60.1305,38.5786 58.5,39.5C 55.9365,39.263 55.9365,38.763 58.5,38C 56.0728,36.4455 56.0728,35.2789 58.5,34.5 Z"/></g>
<g><path style="opacity:1" fill="#fefffe" d="M 6.5,35.5 C 8.33702,35.6395 8.67036,36.3061 7.5,37.5C 6.70245,37.0431 6.36912,36.3764 6.5,35.5 Z"/></g>
<g><path style="opacity:1" fill="#fefffe" d="M 67.5,35.5 C 67.3605,37.337 66.6939,37.6704 65.5,36.5C 65.9569,35.7025 66.6236,35.3691 67.5,35.5 Z"/></g>
<g><path style="opacity:1" fill="#fefffe" d="M 15.5,38.5 C 16.2389,38.369 16.9056,38.5357 17.5,39C 16.5632,39.6917 15.8966,39.525 15.5,38.5 Z"/></g>
<g><path style="opacity:1" fill="#fefffe" d="M 9.5,41.5 C 10.7618,41.0934 12.0951,40.76 13.5,40.5C 13.109,41.7185 13.7756,42.5518 15.5,43C 13.3049,43.4094 11.3049,42.9094 9.5,41.5 Z"/></g>
<g><path style="opacity:1" fill="#fefffe" d="M 60.5,42.5 C 59.537,41.6365 59.537,40.9698 60.5,40.5C 61.7321,41.1445 63.0654,41.3112 64.5,41C 63.4366,42.1882 62.1033,42.6882 60.5,42.5 Z"/></g>
<g><path style="opacity:1" fill="#fefffe" d="M 60.5,42.5 C 59.828,43.2674 58.9947,43.9341 58,44.5C 57.8119,42.9387 58.6453,42.272 60.5,42.5 Z"/></g>
<g><path style="opacity:1" fill="#fefffe" d="M 10.5,44.5 C 13.0118,45.2162 13.0118,46.2162 10.5,47.5C 9.91297,46.7666 9.91297,45.7666 10.5,44.5 Z"/></g>
<g><path style="opacity:1" fill="#fefffe" d="M 61.5,44.5 C 62.9953,44.4148 63.9953,45.0815 64.5,46.5C 62.6043,47.6394 61.6043,46.9728 61.5,44.5 Z"/></g>
</svg>
