<svg width="184" height="250" xmlns="http://www.w3.org/2000/svg" clip-rule="evenodd" version="1.1">

 <g>
  <title>Layer 1</title>
  <g stroke="null" id="svg_39">
   <g stroke="null" id="svg_1">
    <path stroke="null" id="svg_2" opacity="0.64" d="m49.6997,20.61111c2.08319,0 4.16606,0 6.24925,0c1.04144,1.99749 2.08319,3.99494 3.12462,5.99243c-2.08319,0 -3.12462,0.99873 -3.12462,2.99622c-1.04144,0 -2.08319,0 -3.12462,0c-1.9054,-2.66978 -2.94683,-5.66599 -3.12462,-8.98865z" fill="#fefffe"/>
   </g>
   <g stroke="null" id="svg_3">
    <path stroke="null" id="svg_4" d="m80.19771,20.61111c3.0947,0 6.18939,0 9.28409,0c11.87032,2.65466 24.2491,4.67113 37.13634,6.04939c0,2.01647 1.03146,3.0247 3.0947,3.0247c1.03146,0 2.06323,0 3.0947,0c5.27584,5.11812 11.46523,9.15104 18.56817,12.09879c6.33855,8.21202 13.55972,15.26958 21.66287,21.17288c2.27182,3.65353 3.30328,7.68666 3.0947,12.09879c3.30018,6.65857 5.36311,13.71609 6.18939,21.17288c0,1.00813 0,2.01657 0,3.0247c0,7.05752 0,14.11535 0,21.17288c0,2.01657 0,4.03283 0,6.04939c0,2.01657 0,4.03283 0,6.04939c-4.39942,7.09866 -7.49411,14.15619 -9.28409,21.17288c-4.35207,1.43098 -6.4153,4.45568 -6.18939,9.07409c-29.41848,32.59232 -65.52336,42.17032 -108.31433,28.73462c-15.6378,-6.73086 -29.04836,-16.30886 -40.23104,-28.73462c-2.06323,-3.0247 -4.12616,-6.04939 -6.18939,-9.07409c-1.78994,-7.01669 -4.88464,-14.07422 -9.28409,-21.17288c0,-2.01657 0,-4.03283 0,-6.04939c0,-2.01657 0,-4.03283 0,-6.04939c0,-7.05752 0,-14.11535 0,-21.17288c0,-1.00813 0,-2.01657 0,-3.0247c0,-3.0247 0,-6.04939 0,-9.07409c1.03155,0 2.06314,0 3.0947,0c0,-2.01657 0,-4.03283 0,-6.04939c1.03155,-2.01657 2.06314,-4.03283 3.0947,-6.04939c0,-3.0247 0,-6.04939 0,-9.07409c1.03155,0 2.06323,0 3.0947,0c7.13142,-7.98913 14.35227,-16.05497 21.66287,-24.19757c7.10294,-2.94775 13.29234,-6.98067 18.56817,-12.09879c1.03146,0 2.06323,0 3.0947,0c2.06323,0 3.0947,-1.00822 3.0947,-3.0247c7.94501,-0.66991 15.16586,-2.68638 21.66287,-6.04939z" fill="#131627"/>
   </g>
   <g stroke="null" id="svg_5">
    <path stroke="null" id="svg_6" opacity="0.64" d="m127.81531,20.61111c2.08319,0 4.16606,0 6.24925,0c4.16606,2.99622 4.16606,5.99243 0,8.98865c-1.04144,0 -2.08319,0 -3.12462,0c-2.08319,0 -3.12462,-0.99873 -3.12462,-2.99622c0,-1.99749 0,-3.99494 0,-5.99243z" fill="#fefffe"/>
   </g>
   <g stroke="null" id="svg_7">
    <path stroke="null" id="svg_8" opacity="0.408" d="m18.45345,32.59597c0,-2.99622 0,-5.99243 0,-8.98865c11.90482,2.23461 11.90482,5.23082 0,8.98865z" fill="#fefffe"/>
   </g>
   <g stroke="null" id="svg_9">
    <path stroke="null" id="svg_10" opacity="0.408" d="m159.06156,23.60732c10.80214,0.501 11.84358,3.49721 3.12462,8.98865c-2.76748,-2.47176 -3.80892,-5.46797 -3.12462,-8.98865z" fill="#fefffe"/>
   </g>
   <g stroke="null" id="svg_11">
    <path stroke="null" id="svg_12" opacity="0.52" d="m18.45345,32.59597c5.02752,2.47535 10.23533,5.47157 15.62312,8.98865c-7.3813,8.06593 -14.67199,16.05582 -21.87237,23.96973c-1.04144,-7.99001 -2.08309,-7.99001 -3.12462,0c-5.76246,-2.10904 -7.32478,-6.10389 -4.68694,-11.98486c4.26158,2.27203 7.90686,0.77392 10.93619,-4.49432c-7.55294,-6.44944 -6.51141,-11.94253 3.12462,-16.47919z" fill="#fdfffd"/>
   </g>
   <g stroke="null" id="svg_13">
    <path stroke="null" id="svg_14" opacity="0.589" d="m174.68468,62.55813c-8.18152,-5.84771 -15.47252,-12.83881 -21.87237,-20.97351c2.82779,-6.91371 6.99385,-6.91371 12.4985,0c2.30535,7.31128 6.47172,13.3038 12.4985,17.97729c-0.3862,1.8178 -1.42764,2.81644 -3.12462,2.99622z" fill="#fefffe"/>
   </g>
   <g stroke="null" id="svg_15">
    <path stroke="null" id="svg_16" opacity="0.493" d="m171.56005,38.5884c6.13864,1.34335 7.18007,4.33957 3.12462,8.98865c-2.76748,-2.47176 -3.80892,-5.46797 -3.12462,-8.98865z" fill="#fcfffc"/>
   </g>
   <g stroke="null" id="svg_17">
    <path stroke="null" id="svg_18" opacity="0.688" d="m87.19519,41.58462c22.97568,9.26993 44.32717,21.25485 64.0548,35.95459c3.51614,29.02135 4.0367,57.98486 1.56231,86.89026c-22.93756,0.49827 -45.85137,-0.0009 -68.74174,-1.49811c-4.42603,-8.93801 -7.03009,-18.42613 -7.81156,-28.46405c-8.74801,-4.84758 -13.43495,-2.35053 -14.06081,7.49054c2.23598,8.36633 3.27742,16.85581 3.12462,25.46783c-10.26783,-2.11862 -20.68314,-3.11756 -31.24625,-2.99622c0,-30.9608 0,-61.92189 0,-92.88269c20.89093,-5.10465 38.59724,-15.09194 53.11862,-29.96216z" fill="#fefffe"/>
   </g>
   <g stroke="null" id="svg_19">
    <path stroke="null" id="svg_20" d="m90.00348,50.57327c19.32719,10.0903 37.43156,22.00119 54.3134,35.73265c-0.55586,23.6702 -0.03848,47.49196 1.55181,71.46529c-19.65618,0 -39.31266,0 -58.96884,0c0,-10.91841 0,-21.83652 0,-32.75493c-10.34531,0 -20.69092,0 -31.03623,0c0,10.91841 0,21.83652 0,32.75493c-4.13806,0 -8.27643,0 -12.41449,0c-0.51644,-25.82607 0.00062,-51.63278 1.55181,-77.42073c15.47622,-9.62548 30.47696,-19.55112 45.00253,-29.77721z" fill="#121628"/>
   </g>
   <g stroke="null" id="svg_21">
    <path stroke="null" id="svg_22" opacity="0.516" d="m9.07958,74.54299c-1.04153,1.99758 -2.08309,3.99485 -3.12462,5.99243c-2.08309,-0.99864 -4.16616,-1.99758 -6.24925,-2.99622c0.9501,-6.87841 4.07473,-7.87705 9.37387,-2.99622z" fill="#fdfffd"/>
   </g>
   <g stroke="null" id="svg_23">
    <path stroke="null" id="svg_24" opacity="0.67" d="m184.05855,119.48623c0,-6.99107 0,-13.98244 0,-20.97351c4.16606,-0.99864 4.16606,-1.99758 0,-2.99622c-0.83427,-7.38657 -2.91715,-14.37764 -6.24925,-20.97351c1.92914,-0.33168 3.49146,-1.33032 4.68694,-2.99622c2.62562,8.87988 5.75025,9.87852 9.37387,2.99622c6.08989,-0.10996 11.81858,1.38815 17.18544,4.49432c-5.73306,2.77959 -6.77481,6.27527 -3.12462,10.48675c-3.12462,2.49675 -6.24925,4.99379 -9.37387,7.49054c3.66237,1.25422 6.787,3.25179 9.37387,5.99243c-7.79813,4.99319 -15.08881,10.48616 -21.87237,16.47919z" fill="#fefffe"/>
   </g>
   <g stroke="null" id="svg_25">
    <path stroke="null" id="svg_26" opacity="0.67" d="m-22.16667,74.54299c7.80703,2.49165 15.09781,3.49029 21.87237,2.99622c-0.7415,3.86811 0.30006,6.86433 3.12462,8.98865c0,2.99622 0,5.99243 0,8.98865c-4.16616,0.99864 -4.16616,1.99758 0,2.99622c0,6.99107 0,13.98244 0,20.97351c-6.7835,-5.99303 -14.07431,-11.48599 -21.87237,-16.47919c2.58691,-2.74064 5.71153,-4.73822 9.37387,-5.99243c-6.14998,-4.37897 -10.31617,-9.87193 -12.4985,-16.47919c0,-1.99758 0,-3.99485 0,-5.99243z" fill="#fefffe"/>
   </g>
   <g stroke="null" id="svg_27">
    <path stroke="null" id="svg_28" opacity="0.493" d="m5.95495,86.52785c4.95159,1.5053 6.5139,4.50151 4.68694,8.98865c-3.2452,-2.22859 -4.80752,-5.2248 -4.68694,-8.98865z" fill="#fefffe"/>
   </g>
   <g stroke="null" id="svg_29">
    <path stroke="null" id="svg_30" opacity="0.482" d="m105.94294,86.52785c9.37387,0 18.74775,0 28.12162,0c1.91946,10.89184 2.96089,21.87807 3.12462,32.95837c-11.45706,0 -22.91381,0 -34.37087,0c-0.51025,-7.06148 0.01062,-14.05285 1.56231,-20.97351c3.38584,3.49089 5.98959,7.48575 7.81156,11.98486c6.24925,3.99485 12.4985,3.99485 18.74775,0c-2.65031,-5.71858 -3.69206,-11.71101 -3.12462,-17.97729c-5.50684,-0.42756 -10.71465,0.57108 -15.62312,2.99622c-4.43228,-1.51219 -6.51547,-4.50841 -6.24925,-8.98865z" fill="#fefffe"/>
   </g>
   <g stroke="null" id="svg_31">
    <path stroke="null" id="svg_32" opacity="0.661" d="m2.83033,125.47866c0,1.99758 0,3.99485 0,5.99243c0.20448,1.31294 -0.31631,2.31188 -1.56231,2.99622c-3.26786,-4.76548 -6.91326,-9.2598 -10.93619,-13.48297c4.8921,-0.89797 9.05826,0.60014 12.4985,4.49432z" fill="#fefffe"/>
   </g>
   <g stroke="null" id="svg_33">
    <path stroke="null" id="svg_34" opacity="0.401" d="m184.05855,131.47109c0,-1.99758 0,-3.99485 0,-5.99243c16.07744,-6.28187 16.59832,-3.28565 1.56231,8.98865c-1.2461,-0.68434 -1.76666,-1.68327 -1.56231,-2.99622z" fill="#fefffe"/>
   </g>
   <g stroke="null" id="svg_35">
    <path stroke="null" id="svg_36" opacity="0.639" d="m12.2042,152.4446c2.08319,2.99622 4.16606,5.99243 6.24925,8.98865c-2.03069,0.91055 -4.11357,1.90949 -6.24925,2.99622c-4.00583,-4.36968 -4.00583,-8.36483 0,-11.98486z" fill="#fefffe"/>
   </g>
   <g stroke="null" id="svg_37">
    <path stroke="null" id="svg_38" opacity="0.586" d="m174.68468,152.4446c8.01966,9.29456 5.93647,12.29078 -6.24925,8.98865c-0.2281,-4.57492 1.85509,-7.57114 6.24925,-8.98865z" fill="#fcfffc"/>
   </g>
  </g>
 </g>
</svg>