<?xml version="1.0" encoding="UTF-8"?>
<!DOCTYPE svg PUBLIC "-//W3C//DTD SVG 1.1//EN" "http://www.w3.org/Graphics/SVG/1.1/DTD/svg11.dtd">
<svg xmlns="http://www.w3.org/2000/svg" version="1.1" width="184px" height="250px" style="shape-rendering:geometricPrecision; text-rendering:geometricPrecision; image-rendering:optimizeQuality; fill-rule:evenodd; clip-rule:evenodd" xmlns:xlink="http://www.w3.org/1999/xlink">
<g><path style="opacity:0.64" fill="#fefffe" d="M 22.5,-0.5 C 23.1667,-0.5 23.8333,-0.5 24.5,-0.5C 24.8333,0.166667 25.1667,0.833333 25.5,1.5C 24.8333,1.5 24.5,1.83333 24.5,2.5C 24.1667,2.5 23.8333,2.5 23.5,2.5C 22.8902,1.60895 22.5569,0.608953 22.5,-0.5 Z"/></g>
<g><path style="opacity:1" fill="#131627" d="M 32.5,-0.5 C 33.5,-0.5 34.5,-0.5 35.5,-0.5C 39.3357,0.377659 43.3357,1.04433 47.5,1.5C 47.5,2.16667 47.8333,2.5 48.5,2.5C 48.8333,2.5 49.1667,2.5 49.5,2.5C 51.2048,4.19211 53.2048,5.52544 55.5,6.5C 57.5482,9.21499 59.8816,11.5483 62.5,13.5C 63.2341,14.7079 63.5674,16.0413 63.5,17.5C 64.5664,19.7014 65.233,22.0347 65.5,24.5C 65.5,24.8333 65.5,25.1667 65.5,25.5C 65.5,27.8333 65.5,30.1667 65.5,32.5C 65.5,33.1667 65.5,33.8333 65.5,34.5C 65.5,35.1667 65.5,35.8333 65.5,36.5C 64.0784,38.8469 63.0784,41.1802 62.5,43.5C 61.0937,43.9731 60.427,44.9731 60.5,46.5C 50.9939,57.2754 39.3272,60.442 25.5,56C 20.4469,53.7747 16.1135,50.6081 12.5,46.5C 11.8333,45.5 11.1667,44.5 10.5,43.5C 9.92161,41.1802 8.92161,38.8469 7.5,36.5C 7.5,35.8333 7.5,35.1667 7.5,34.5C 7.5,33.8333 7.5,33.1667 7.5,32.5C 7.5,30.1667 7.5,27.8333 7.5,25.5C 7.5,25.1667 7.5,24.8333 7.5,24.5C 7.5,23.5 7.5,22.5 7.5,21.5C 7.83333,21.5 8.16667,21.5 8.5,21.5C 8.5,20.8333 8.5,20.1667 8.5,19.5C 8.83333,18.8333 9.16667,18.1667 9.5,17.5C 9.5,16.5 9.5,15.5 9.5,14.5C 9.83333,14.5 10.1667,14.5 10.5,14.5C 12.8044,11.8587 15.1377,9.19204 17.5,6.5C 19.7952,5.52544 21.7952,4.19211 23.5,2.5C 23.8333,2.5 24.1667,2.5 24.5,2.5C 25.1667,2.5 25.5,2.16667 25.5,1.5C 28.0673,1.27852 30.4006,0.611848 32.5,-0.5 Z"/></g>
<g><path style="opacity:0.64" fill="#fefffe" d="M 47.5,-0.5 C 48.1667,-0.5 48.8333,-0.5 49.5,-0.5C 50.8333,0.5 50.8333,1.5 49.5,2.5C 49.1667,2.5 48.8333,2.5 48.5,2.5C 47.8333,2.5 47.5,2.16667 47.5,1.5C 47.5,0.833333 47.5,0.166667 47.5,-0.5 Z"/></g>
<g><path style="opacity:0.408" fill="#fefffe" d="M 12.5,3.5 C 12.5,2.5 12.5,1.5 12.5,0.5C 16.31,1.24581 16.31,2.24581 12.5,3.5 Z"/></g>
<g><path style="opacity:0.408" fill="#fefffe" d="M 57.5,0.5 C 60.9571,0.667211 61.2904,1.66721 58.5,3.5C 57.6143,2.67504 57.281,1.67504 57.5,0.5 Z"/></g>
<g><path style="opacity:0.52" fill="#fdfffd" d="M 12.5,3.5 C 14.109,4.32616 15.7757,5.32616 17.5,6.5C 15.1377,9.19204 12.8044,11.8587 10.5,14.5C 10.1667,11.8333 9.83333,11.8333 9.5,14.5C 7.65579,13.7961 7.15579,12.4628 8,10.5C 9.36387,11.2583 10.5305,10.7583 11.5,9C 9.08277,6.84747 9.4161,5.01413 12.5,3.5 Z"/></g>
<g><path style="opacity:0.589" fill="#fefffe" d="M 62.5,13.5 C 59.8816,11.5483 57.5482,9.21499 55.5,6.5C 56.405,4.19252 57.7383,4.19252 59.5,6.5C 60.2378,8.94017 61.5712,10.9402 63.5,12.5C 63.3764,13.1067 63.0431,13.44 62.5,13.5 Z"/></g>
<g><path style="opacity:0.493" fill="#fcfffc" d="M 61.5,5.5 C 63.4646,5.94835 63.7979,6.94835 62.5,8.5C 61.6143,7.67504 61.281,6.67504 61.5,5.5 Z"/></g>
<g><path style="opacity:0.688" fill="#fefffe" d="M 34.5,6.5 C 41.8531,9.59388 48.6864,13.5939 55,18.5C 56.1253,28.186 56.2919,37.8527 55.5,47.5C 48.1591,47.6663 40.8258,47.4997 33.5,47C 32.0835,44.0169 31.2501,40.8502 31,37.5C 28.2003,35.8821 26.7003,36.7155 26.5,40C 27.2156,42.7923 27.5489,45.6257 27.5,48.5C 24.2139,47.7929 20.8806,47.4595 17.5,47.5C 17.5,37.1667 17.5,26.8333 17.5,16.5C 24.1859,14.7963 29.8526,11.463 34.5,6.5 Z"/></g>
<g><path style="opacity:1" fill="#121628" d="M 35.5,9.5 C 41.7273,12.8886 47.5606,16.8886 53,21.5C 52.8209,29.4491 52.9876,37.4491 53.5,45.5C 47.1667,45.5 40.8333,45.5 34.5,45.5C 34.5,41.8333 34.5,38.1667 34.5,34.5C 31.1667,34.5 27.8333,34.5 24.5,34.5C 24.5,38.1667 24.5,41.8333 24.5,45.5C 23.1667,45.5 21.8333,45.5 20.5,45.5C 20.3336,36.8269 20.5002,28.1603 21,19.5C 25.9865,16.2675 30.8198,12.9342 35.5,9.5 Z"/></g>
<g><path style="opacity:0.516" fill="#fdfffd" d="M 9.5,17.5 C 9.16667,18.1667 8.83333,18.8333 8.5,19.5C 7.83333,19.1667 7.16667,18.8333 6.5,18.5C 6.80407,16.2043 7.80407,15.871 9.5,17.5 Z"/></g>
<g><path style="opacity:0.67" fill="#fefffe" d="M 65.5,32.5 C 65.5,30.1667 65.5,27.8333 65.5,25.5C 66.8333,25.1667 66.8333,24.8333 65.5,24.5C 65.233,22.0347 64.5664,19.7014 63.5,17.5C 64.1174,17.3893 64.6174,17.056 65,16.5C 65.8403,19.4637 66.8403,19.797 68,17.5C 69.949,17.4633 71.7824,17.9633 73.5,19C 71.6652,19.9277 71.3318,21.0944 72.5,22.5C 71.5,23.3333 70.5,24.1667 69.5,25C 70.6721,25.4186 71.6721,26.0853 72.5,27C 70.0043,28.6665 67.671,30.4998 65.5,32.5 Z"/></g>
<g><path style="opacity:0.67" fill="#fefffe" d="M -0.5,17.5 C 1.99855,18.3316 4.33188,18.6649 6.5,18.5C 6.26269,19.791 6.59603,20.791 7.5,21.5C 7.5,22.5 7.5,23.5 7.5,24.5C 6.16667,24.8333 6.16667,25.1667 7.5,25.5C 7.5,27.8333 7.5,30.1667 7.5,32.5C 5.32902,30.4998 2.99568,28.6665 0.5,27C 1.32791,26.0853 2.32791,25.4186 3.5,25C 1.53177,23.5385 0.198434,21.7052 -0.5,19.5C -0.5,18.8333 -0.5,18.1667 -0.5,17.5 Z"/></g>
<g><path style="opacity:0.493" fill="#fefffe" d="M 8.5,21.5 C 10.0847,22.0024 10.5847,23.0024 10,24.5C 8.96141,23.7562 8.46141,22.7562 8.5,21.5 Z"/></g>
<g><path style="opacity:0.482" fill="#fefffe" d="M 40.5,21.5 C 43.5,21.5 46.5,21.5 49.5,21.5C 50.1143,25.1352 50.4476,28.8019 50.5,32.5C 46.8333,32.5 43.1667,32.5 39.5,32.5C 39.3367,30.1432 39.5034,27.8098 40,25.5C 41.0836,26.6651 41.9169,27.9984 42.5,29.5C 44.5,30.8333 46.5,30.8333 48.5,29.5C 47.6518,27.5914 47.3184,25.5914 47.5,23.5C 45.7376,23.3573 44.0709,23.6906 42.5,24.5C 41.0815,23.9953 40.4148,22.9953 40.5,21.5 Z"/></g>
<g><path style="opacity:0.661" fill="#fefffe" d="M 7.5,34.5 C 7.5,35.1667 7.5,35.8333 7.5,36.5C 7.56544,36.9382 7.39877,37.2716 7,37.5C 5.95416,35.9095 4.78749,34.4095 3.5,33C 5.06566,32.7003 6.39899,33.2003 7.5,34.5 Z"/></g>
<g><path style="opacity:0.401" fill="#fefffe" d="M 65.5,36.5 C 65.5,35.8333 65.5,35.1667 65.5,34.5C 70.6454,32.4034 70.8121,33.4034 66,37.5C 65.6012,37.2716 65.4346,36.9382 65.5,36.5 Z"/></g>
<g><path style="opacity:0.639" fill="#fefffe" d="M 10.5,43.5 C 11.1667,44.5 11.8333,45.5 12.5,46.5C 11.8501,46.8039 11.1835,47.1373 10.5,47.5C 9.21798,46.0416 9.21798,44.7082 10.5,43.5 Z"/></g>
<g><path style="opacity:0.586" fill="#fcfffc" d="M 62.5,43.5 C 65.0666,46.6021 64.3999,47.6021 60.5,46.5C 60.427,44.9731 61.0937,43.9731 62.5,43.5 Z"/></g>
</svg>
